<svg width="800" height="500" viewBox="0 0 800 500" fill="none" xmlns="http://www.w3.org/2000/svg">
  <!-- Fondo gradiente -->
  <defs>
    <linearGradient id="heroGrad" x1="0%" y1="0%" x2="100%" y2="100%">
      <stop offset="0%" style="stop-color:#eff6ff;stop-opacity:1" />
      <stop offset="50%" style="stop-color:#ffffff;stop-opacity:1" />
      <stop offset="100%" style="stop-color:#fef3c7;stop-opacity:1" />
    </linearGradient>
  </defs>
  
  <!-- Fondo -->
  <rect width="800" height="500" fill="url(#heroGrad)"/>
  
  <!-- Formas geométricas decorativas -->
  <circle cx="150" cy="100" r="80" fill="#2563eb" opacity="0.1"/>
  <circle cx="650" cy="400" r="100" fill="#f59e0b" opacity="0.1"/>
  <rect x="550" y="50" width="180" height="180" rx="15" fill="#2563eb" opacity="0.08" transform="rotate(20 640 140)"/>
  <rect x="50" y="300" width="150" height="150" rx="15" fill="#f59e0b" opacity="0.08" transform="rotate(-15 125 375)"/>
  
  <!-- Grid pattern -->
  <pattern id="grid" width="40" height="40" patternUnits="userSpaceOnUse">
    <circle cx="2" cy="2" r="1" fill="#2563eb" opacity="0.1"/>
  </pattern>
  <rect width="800" height="500" fill="url(#grid)"/>
  
  <!-- Laptop illustration -->
  <g transform="translate(200, 150)">
    <!-- Screen -->
    <rect x="0" y="0" width="400" height="240" rx="8" fill="#1e293b"/>
    <rect x="10" y="10" width="380" height="220" rx="4" fill="#f8fafc"/>
    
    <!-- Browser mockup -->
    <rect x="20" y="20" width="360" height="30" rx="4" fill="#e5e7eb"/>
    <circle cx="35" cy="35" r="5" fill="#ef4444"/>
    <circle cx="55" cy="35" r="5" fill="#f59e0b"/>
    <circle cx="75" cy="35" r="5" fill="#10b981"/>
    
    <!-- Content lines -->
    <rect x="30" y="70" width="80" height="8" rx="4" fill="#2563eb"/>
    <rect x="30" y="90" width="250" height="6" rx="3" fill="#cbd5e1"/>
    <rect x="30" y="105" width="200" height="6" rx="3" fill="#cbd5e1"/>
    <rect x="30" y="130" width="150" height="30" rx="6" fill="#f59e0b"/>
    
    <!-- Code editor mockup -->
    <rect x="200" y="70" width="150" height="130" rx="4" fill="#1e293b"/>
    <line x1="210" y1="80" x2="330" y2="80" stroke="#2563eb" stroke-width="2"/>
    <line x1="210" y1="95" x2="280" y2="95" stroke="#10b981" stroke-width="2"/>
    <line x1="210" y1="110" x2="320" y2="110" stroke="#f59e0b" stroke-width="2"/>
    <line x1="220" y1="125" x2="300" y2="125" stroke="#8b5cf6" stroke-width="2"/>
    <line x1="220" y1="140" x2="290" y2="140" stroke="#06b6d4" stroke-width="2"/>
    
    <!-- Laptop base -->
    <path d="M -20 240 L 420 240 L 450 270 L -50 270 Z" fill="#475569"/>
    <ellipse cx="200" cy="252" rx="40" ry="4" fill="#334155"/>
  </g>
  
  <!-- Icon decorativo -->
  <g transform="translate(50, 50)">
    <circle cx="0" cy="0" r="30" fill="#2563eb" opacity="0.2"/>
    <path d="M -10 -5 L -10 5 L 0 10 L 10 5 L 10 -5 L 0 -10 Z" fill="#2563eb"/>
  </g>
</svg>
