<svg width="600" height="400" viewBox="0 0 600 400" fill="none" xmlns="http://www.w3.org/2000/svg">
  <!-- Fondo -->
  <defs>
    <linearGradient id="aboutGrad" x1="0%" y1="0%" x2="100%" y2="100%">
      <stop offset="0%" style="stop-color:#eff6ff;stop-opacity:1" />
      <stop offset="100%" style="stop-color:#fef3c7;stop-opacity:1" />
    </linearGradient>
  </defs>
  
  <rect width="600" height="400" fill="url(#aboutGrad)"/>
  
  <!-- Formas decorativas -->
  <circle cx="100" cy="80" r="60" fill="#2563eb" opacity="0.1"/>
  <circle cx="500" cy="320" r="80" fill="#f59e0b" opacity="0.1"/>
  
  <!-- Persona trabajando -->
  <g transform="translate(150, 100)">
    <!-- Desk -->
    <rect x="0" y="180" width="300" height="10" rx="5" fill="#94a3b8"/>
    <rect x="20" y="190" width="8" height="40" fill="#64748b"/>
    <rect x="272" y="190" width="8" height="40" fill="#64748b"/>
    
    <!-- Monitor -->
    <rect x="80" y="90" width="140" height="90" rx="4" fill="#1e293b"/>
    <rect x="90" y="100" width="120" height="70" rx="2" fill="#f8fafc"/>
    
    <!-- Code on screen -->
    <line x1="100" y1="110" x2="180" y2="110" stroke="#2563eb" stroke-width="2"/>
    <line x1="100" y1="125" x2="160" y2="125" stroke="#10b981" stroke-width="2"/>
    <line x1="100" y1="140" x2="190" y2="140" stroke="#f59e0b" stroke-width="2"/>
    <line x1="110" y1="155" x2="170" y2="155" stroke="#8b5cf6" stroke-width="2"/>
    
    <!-- Monitor stand -->
    <rect x="140" y="180" width="20" height="15" fill="#475569"/>
    <rect x="130" y="195" width="40" height="5" rx="2" fill="#64748b"/>
    
    <!-- Coffee cup -->
    <ellipse cx="250" cy="175" rx="15" ry="5" fill="#94a3b8"/>
    <rect x="235" y="155" width="30" height="20" rx="2" fill="#fef3c7"/>
    <rect x="233" y="155" width="3" height="25" fill="#d97706"/>
    
    <!-- Plant -->
    <ellipse cx="40" cy="175" rx="20" ry="8" fill="#dc2626"/>
    <path d="M 30 175 Q 30 150 40 140 Q 50 150 50 175" fill="#10b981"/>
    <path d="M 35 175 Q 35 160 40 150 Q 45 160 45 175" fill="#22c55e"/>
    <circle cx="40" cy="140" r="3" fill="#10b981"/>
    <circle cx="36" cy="150" r="2" fill="#22c55e"/>
    <circle cx="44" cy="148" r="2" fill="#22c55e"/>
    
    <!-- Notebook -->
    <rect x="220" y="160" width="40" height="30" rx="2" fill="#3b82f6"/>
    <line x1="225" y1="168" x2="255" y2="168" stroke="white" stroke-width="1"/>
    <line x1="225" y1="175" x2="255" y2="175" stroke="white" stroke-width="1"/>
    <line x1="225" y1="182" x2="245" y2="182" stroke="white" stroke-width="1"/>
  </g>
  
  <!-- Icons flotantes -->
  <g transform="translate(450, 80)">
    <circle cx="0" cy="0" r="25" fill="white" opacity="0.9"/>
    <path d="M -8 -8 L -8 8 L 0 12 L 8 8 L 8 -8 L 0 -12 Z" fill="#2563eb"/>
  </g>
  
  <g transform="translate(520, 150)">
    <circle cx="0" cy="0" r="20" fill="white" opacity="0.9"/>
    <rect x="-6" y="-6" width="12" height="12" rx="2" fill="#f59e0b"/>
  </g>
  
  <g transform="translate(50, 200)">
    <circle cx="0" cy="0" r="18" fill="white" opacity="0.9"/>
    <circle cx="0" cy="0" r="8" fill="#10b981"/>
    <circle cx="0" cy="0" r="4" fill="white"/>
  </g>
</svg>
